<svg width="17" height="17" viewBox="0 0 17 17" fill="none" xmlns="http://www.w3.org/2000/svg">
<path opacity="0.526055" d="M16.5779 0.562836H0.767487V16.3732H16.5779V0.562836Z" fill="white"/>
<path d="M9.30685 2.8553L7.28925 1.69044C7.12969 1.59832 6.92566 1.65299 6.83353 1.81255L5.66867 3.83015C5.57655 3.98971 5.63122 4.19374 5.79078 4.28586L7.80838 5.45072C7.96794 5.54284 8.17197 5.48817 8.26409 5.32861L9.42895 3.31101C9.52107 3.15145 9.46641 2.94742 9.30685 2.8553Z" fill="#2A7FFF"/>
<path d="M7.67995 5.64332L5.66236 4.47846C5.50279 4.38634 5.29876 4.44101 5.20664 4.60057L4.04178 6.61817C3.94966 6.77773 4.00433 6.98176 4.16389 7.07388L6.18149 8.23874C6.34105 8.33087 6.54508 8.2762 6.6372 8.11664L7.80206 6.09904C7.89418 5.93948 7.83951 5.73545 7.67995 5.64332Z" fill="#FF6600"/>
<path d="M5.8938 9.06178L3.89557 7.86399C3.73754 7.76927 3.53264 7.82058 3.43792 7.97861L2.24013 9.97684C2.1454 10.1349 2.19672 10.3398 2.35475 10.4345L4.35297 11.6323C4.511 11.727 4.7159 11.6757 4.81062 11.5177L6.00841 9.51944C6.10314 9.36141 6.05183 9.15651 5.8938 9.06178Z" fill="#2A7FFF"/>
<path d="M8.62633 10.8502L6.61746 9.67037C6.45859 9.57706 6.25416 9.63021 6.16085 9.78908L4.98099 11.7979C4.88768 11.9568 4.94083 12.1612 5.0997 12.2546L7.10856 13.4344C7.26743 13.5277 7.47186 13.4746 7.56517 13.3157L8.74504 11.3068C8.83834 11.148 8.7852 10.9435 8.62633 10.8502Z" fill="#FF6600"/>
<path d="M10.5004 7.45411L8.49158 6.27425C8.33271 6.18094 8.12828 6.23409 8.03497 6.39296L6.85511 8.40183C6.7618 8.5607 6.81495 8.76513 6.97382 8.85844L8.98268 10.0383C9.14155 10.1316 9.34598 10.0785 9.43929 9.91959L10.6192 7.91072C10.7125 7.75185 10.6593 7.54742 10.5004 7.45411Z" fill="#FF2A2A"/>
<path d="M12.1428 4.64325L10.134 3.46338C9.9751 3.37008 9.77067 3.42322 9.67736 3.58209L8.4975 5.59096C8.40419 5.74983 8.45734 5.95426 8.61621 6.04757L10.6251 7.22743C10.7839 7.32074 10.9884 7.26759 11.0817 7.10872L12.2615 5.09986C12.3549 4.94099 12.3017 4.73656 12.1428 4.64325Z" fill="#2AD4FF"/>
<path d="M14.9921 6.45175L13 5.24374C12.8425 5.1482 12.6373 5.19847 12.5418 5.35601L11.3338 7.34807C11.2382 7.50562 11.2885 7.71077 11.446 7.80631L13.4381 9.01432C13.5956 9.10985 13.8008 9.05959 13.8963 8.90204L15.1043 6.90998C15.1999 6.75244 15.1496 6.54728 14.9921 6.45175Z" fill="#FF6600"/>
<path d="M13.3228 9.53347L11.3307 8.32546C11.1732 8.22993 10.968 8.28019 10.8725 8.43774L9.66448 10.4298C9.56895 10.5873 9.61921 10.7925 9.77675 10.888L11.7688 12.096C11.9264 12.1916 12.1315 12.1413 12.2271 11.9838L13.4351 9.99171C13.5306 9.83416 13.4803 9.62901 13.3228 9.53347Z" fill="#FFCC00"/>
<path d="M11.5893 12.6794L9.59727 11.4714C9.43973 11.3758 9.23457 11.4261 9.13903 11.5837L7.93102 13.5757C7.83549 13.7333 7.88575 13.9384 8.0433 14.034L10.0354 15.242C10.1929 15.3375 10.3981 15.2872 10.4936 15.1297L11.7016 13.1376C11.7971 12.9801 11.7469 12.7749 11.5893 12.6794Z" fill="#FF2A2A"/>
</svg>
